<svg width="24" height="24" viewBox="0 0 24 24" fill="none" xmlns="http://www.w3.org/2000/svg">
  <path d="M26.7057 28.5606C24.6433 32.1348 21.7502 34.389 18.0274 35.3224C14.4158 36.1799 10.9011 35.6217 7.48429 33.6494C4.47801 31.9132 2.36479 29.5199 1.14463 26.4676C-0.424699 22.479 -0.0189348 18.4214 2.36096 14.2947C4.43868 10.6947 7.35671 8.45579 11.117 7.57808C12.2633 7.31333 13.4 7.18671 14.5242 7.2011L8.62292 17.4305C8.52316 17.6003 8.42243 17.772 8.32171 17.9466C6.50202 21.1006 5.41328 23.7299 5.05548 25.8354C4.57106 28.8129 5.6387 31.0585 8.25936 32.5722C9.44115 33.2552 10.5827 33.5631 11.681 33.4979C14.5108 33.3434 17.5391 30.4686 20.7689 24.8704C22.1329 22.504 23.0855 20.409 23.6246 18.5835C24.7277 14.7715 23.827 12.0261 20.9243 10.3493C20.0514 9.84478 19.1756 9.55029 18.3008 9.46492C17.2513 9.34501 16.1866 9.5714 15.1065 10.146H15.1084L14.4436 9.76325C14.4436 9.76325 17.1266 6.63227 21.7003 9.27307C24.604 10.9498 26.6721 13.2127 27.9057 16.0626C29.6084 20.0588 29.2093 24.2239 26.7076 28.5606H26.7057Z" fill="currentColor" transform="translate(2.3, -2.5) scale(0.667)"/>
</svg>
